Coordinates
version=1
nRows=22
nColumns=24
inDegrees=yes

Units are S.I. units (second, meters, Newtons, ...)
Angles are in degrees.

endheader
time	pelvis_tilt	pelvis_list	pelvis_rotation	pelvis_tx	pelvis_ty	pelvis_tz	hip_flexion_r	hip_adduction_r	hip_rotation_r	knee_angle_r	ankle_angle_r	subtalar_angle_r	mtp_angle_r	hip_flexion_l	hip_adduction_l	hip_rotation_l	knee_angle_l	ankle_angle_l	subtalar_angle_l	mtp_angle_l	lumbar_extension	lumbar_bending	lumbar_rotation
      0.41300000	      0.73847882	     -0.57714452	      3.85785528	     -0.75145954	      0.89949945	      0.30369757	     28.90007771	      1.87968358	     -6.82534615	    -25.78994977	      4.97801739	      3.09631038	      3.60526355	    -17.17459150	     -0.15516573	     -1.70552052	     -8.71258951	     17.14414973	      2.78973900	      7.44125000	    -10.26711871	     -0.29052428	     -8.64523528
      0.41716667	      0.69005563	     -0.57963582	      4.07256929	     -0.74561955	      0.89822032	      0.30379773	     28.81998150	      1.94314181	     -6.60767549	    -25.71871154	      5.08360785	      3.05764406	      3.55390264	    -17.07738425	     -0.30450855	     -1.63757935	     -9.63212114	     17.44424940	      3.08364824	      7.52138978	    -10.17337934	     -0.26610086	     -8.74582068
      0.42133333	      0.67002436	     -0.60016352	      4.26683520	     -0.73976610	      0.89697066	      0.30395469	     28.71523678	      2.04498784	     -6.37495548	    -25.75070923	      5.21249131	      2.92945263	      3.48889514	    -16.95798459	     -0.48583806	     -1.70284183	    -10.67004926	     17.75416844	      3.56031400	      7.70739004	    -10.13195927	     -0.19620840	     -8.83567142
      0.42550000	      0.62500518	     -0.62096261	      4.47282358	     -0.73390782	      0.89572357	      0.30411986	     28.62978804	      2.14337136	     -6.17403416	    -25.84892212	      5.28382551	      2.75819732	      3.44514365	    -16.77695925	     -0.66885790	     -1.70272853	    -11.77308417	     18.01647149	      3.93854790	      7.95777720	    -10.05369789	     -0.13907388	     -8.90386695
      0.42966667	      0.54328506	     -0.63751404	      4.68267612	     -0.72805320	      0.89446679	      0.30430477	     28.57859475	      2.23736810	     -5.98667077	    -26.00677231	      5.28463298	      2.55791122	      3.43270850	    -16.51990494	     -0.84045268	     -1.62572750	    -12.94431447	     18.21733468	      4.16370735	      8.14545951	     -9.91908512	     -0.10327188	     -8.93890974
      0.43383333	      0.48817577	     -0.67252631	      4.87544196	     -0.72218093	      0.89324163	      0.30453160	     28.51332190	      2.36269986	     -5.81823209	    -26.26519474	      5.30781680	      2.26294075	      3.43292796	    -16.24125179	     -1.04433582	     -1.65684545	    -14.22641852	     18.39954325	      4.54381765	      8.44254479	     -9.83098071	     -0.01067915	     -8.98933902
      0.43800000	      0.41774973	     -0.71064150	      5.07227537	     -0.71630561	      0.89205920	      0.30480138	     28.44239924	      2.50013364	     -5.64360514	    -26.53081106	      5.29106754	      1.95095235	      3.44545561	    -15.91306492	     -1.24779747	     -1.61506639	    -15.56410856	     18.53216520	      4.79423225	      8.73428918	     -9.70924299	      0.03478641	     -8.99351081
      0.44216667	      0.42827646	     -0.80663644	      5.25864425	     -0.71039302	      0.89099359	      0.30511921	     28.28207796	      2.71316214	     -5.51402036	    -26.83906199	      5.28639286	      1.57213179	      3.51970684	    -15.61203548	     -1.54519961	     -1.73745224	    -17.02910637	     18.70578364	      5.29000350	      9.71630810	     -9.70171302	      0.19878500	     -9.00892167
      0.44633333	      0.33481151	     -0.84256811	      5.42799057	     -0.70450682	      0.88985288	      0.30545443	     28.25428192	      2.86488647	     -5.34868696	    -27.23445989	      5.26697667	      1.12073880	      3.92660103	    -15.19895331	     -1.73018624	     -1.63444321	    -18.46425326	     18.55656661	      5.28782338	     14.22483965	     -9.54985507	      0.25798599	     -8.88806872
      0.45050000	      0.24092067	     -0.88255531	      5.61280314	     -0.69865289	      0.88874789	      0.30577461	     28.23914666	      3.00605985	     -5.24334254	    -27.69286837	      5.29594401	      0.75685352	      3.93055284	    -14.72521219	     -1.91644102	     -1.46987755	    -20.01999208	     18.47893432	      5.31670936	     14.28171607	     -9.41101416	      0.33047660	     -8.88775008
      0.45466667	      0.16331266	     -0.94059687	      5.76198205	     -0.69278686	      0.88769662	      0.30618808	     28.20972679	      3.19213081	     -5.11544533	    -28.17540345	      5.28891479	      0.28416486	      3.94384570	    -14.21000601	     -2.13625454	     -1.45864205	    -21.68713557	     18.34478387	      5.47370153	     14.42474108	     -9.27549585	      0.40190487	     -8.84931593
      0.45883333	      0.12152911	     -1.03437496	      5.90823368	     -0.68689993	      0.88674419	      0.30663160	     28.13446688	      3.42752908	     -4.98401652	    -28.66779615	      5.36454114	     -0.23791171	      3.98247046	    -13.69129908	     -2.40560316	     -1.46484490	    -23.42173298	     18.11945506	      5.69336788	     14.79843146	     -9.19166268	      0.53617653	     -8.78293288
      0.46300000	      0.05336113	     -1.11226118	      6.03963521	     -0.68104830	      0.88579741	      0.30709415	     28.10896159	      3.64495300	     -4.85909333	    -29.21994564	      5.45755468	     -0.74038095	      4.03238097	    -13.10087845	     -2.63777584	     -1.40911462	    -25.22792081	     17.80502508	      5.74426523	     15.33511353	     -9.07864594	      0.63928523	     -8.67526051
      0.46716667	     -0.01752153	     -1.19280681	      6.16324516	     -0.67523167	      0.88490050	      0.30751053	     28.10870949	      3.84717780	     -4.78886317	    -29.82871943	      5.55558463	     -1.15562052	      4.06054799	    -12.46427322	     -2.85130839	     -1.29871845	    -27.09345718	     17.42579166	      5.63491093	     15.68592952	     -8.96707855	      0.78228532	     -8.53963300
      0.47133333	     -0.03946461	     -1.31424908	      6.28453573	     -0.66937800	      0.88414617	      0.30798645	     28.02418479	      4.11391070	     -4.68681028	    -30.38232608	      5.74993140	     -1.61124890	      4.33247113	    -11.83384419	     -3.13369740	     -1.25310350	    -29.01840311	     16.88576005	      5.52981642	     20.82935877	     -8.89830121	      0.94056304	     -8.38438800
      0.47550000	     -0.08644011	     -1.41348091	      6.39075591	     -0.66358153	      0.88339767	      0.30843828	     27.99559615	      4.34483047	     -4.60014232	    -31.00473535	      5.98377941	     -1.98808102	      4.33148832	    -11.13167693	     -3.36705634	     -1.15743678	    -31.01186089	     16.27301547	      5.38862980	     20.87372957	     -8.80816242	      1.07431034	     -8.24349448
      0.47966667	     -0.11436430	     -1.52911022	      6.48099496	     -0.65779590	      0.88271161	      0.30891184	     27.95098716	      4.60158620	     -4.50295260	    -31.63998652	      6.26327589	     -2.38828253	      4.32485343	    -10.40829163	     -3.61942538	     -1.08827672	    -33.06369327	     15.60980786	      5.25870785	     20.96836976	     -8.74427721	      1.23984544	     -8.07643656
      0.48383333	     -0.12017667	     -1.66130893	      6.56003656	     -0.65202259	      0.88211308	      0.30938327	     27.87671282	      4.87828031	     -4.40476829	    -32.26387525	      6.58093351	     -2.76288432	      4.31102298	     -9.66972702	     -3.89095635	     -1.03704424	    -35.15827193	     14.86086390	      5.10372521	     21.10193968	     -8.70327701	      1.42765114	     -7.89322248
      0.48800000	     -0.11010394	     -1.80852480	      6.63163667	     -0.64626079	      0.88158175	      0.30984978	     27.78122988	      5.17234801	     -4.30516725	    -32.88134827	      6.93725844	     -3.11742323	      4.28606070	     -8.91132607	     -4.18069753	     -1.00003839	    -37.29012686	     14.01924159	      4.92431754	     21.27360814	     -8.67876984	      1.64265094	     -7.69487063
      0.49216667	     -0.07413363	     -1.96857514	      6.69398455	     -0.64051643	      0.88114314	      0.31030975	     27.64438182	      5.48093134	     -4.21034072	    -33.46787312	      7.32663509	     -3.43147441	      4.25117088	     -8.14469359	     -4.48819360	     -0.98125427	    -39.44922314	     13.10021082	      4.71609418	     21.46256331	     -8.68399538	      1.87183391	     -7.48850909
      0.49633333	     -0.01743023	     -2.13596714	      6.74356508	     -0.63479929	      0.88077971	      0.31076093	     27.47541550	      5.80191144	     -4.10649052	    -34.03134374	      7.74655736	     -3.74527541	      4.19095745	     -7.37287584	     -4.80397539	     -0.97575999	    -41.62095889	     12.12877775	      4.49711602	     21.71086386	     -8.72448369	      2.13396833	     -7.25853255
      0.50050000	      0.09722696	     -2.32139646	      6.78844750	     -0.62905966	      0.88057738	      0.31120897	     27.21027693	      6.14865678	     -4.00471201	    -34.53213208	      8.25198869	     -3.94390644	      4.16820594	     -6.65156744	     -5.14557021	     -0.97324285	    -43.76822089	     11.05608526	      4.21922619	     21.80728474	     -8.82216560	      2.40020061	     -7.08655043
